<svg width="18" height="18" viewBox="0 0 18 18" fill="none" xmlns="http://www.w3.org/2000/svg">
<path d="M7.48331 13.1733C7.58331 13.1733 7.65859 13.17 7.70915 13.1633C7.76773 13.1513 7.82056 13.1199 7.85914 13.0742C7.90914 13.0219 7.93414 12.9458 7.93414 12.8458L7.93081 12.3817C7.92859 12.0856 7.92748 11.8511 7.92748 11.6783L7.77081 11.7058C7.64545 11.7256 7.51849 11.7334 7.39164 11.7292C7.23228 11.7263 7.07341 11.7104 6.91664 11.6817C6.75051 11.6499 6.59411 11.5797 6.45998 11.4767C6.31978 11.3706 6.21515 11.2244 6.15998 11.0575L6.09165 10.9C6.0345 10.7758 5.96229 10.6591 5.87664 10.5525C5.79975 10.4432 5.69772 10.3541 5.57914 10.2925L5.53164 10.2592C5.49892 10.2351 5.46926 10.2071 5.44331 10.1758C5.41853 10.1471 5.39778 10.1152 5.38164 10.0808C5.36831 10.0492 5.37942 10.0231 5.41498 10.0025C5.47759 9.97621 5.54568 9.96562 5.61331 9.97166L5.74998 9.9925C5.84164 10.0103 5.95442 10.0647 6.08831 10.1558C6.22164 10.2469 6.33192 10.3653 6.41914 10.5108C6.52414 10.6975 6.65053 10.8397 6.79831 10.9375C6.92915 11.03 7.08476 11.0811 7.24498 11.0842C7.39498 11.0842 7.5247 11.0731 7.63415 11.0508C7.74047 11.029 7.84373 10.9943 7.94164 10.9475C7.9822 10.6431 8.09331 10.4089 8.27498 10.245C8.03913 10.2217 7.8054 10.1805 7.57581 10.1217C7.35179 10.0594 7.13628 9.96987 6.93414 9.85499C6.72262 9.74034 6.53574 9.58517 6.38414 9.39833C6.2397 9.21611 6.12026 8.97722 6.02581 8.68166C5.92776 8.3493 5.88083 8.00397 5.88664 7.65749C5.88664 7.10749 6.06637 6.63888 6.42581 6.25166C6.25748 5.83777 6.27331 5.37361 6.47331 4.85916C6.60609 4.81749 6.80192 4.84805 7.06081 4.95083C7.32026 5.05305 7.51026 5.14083 7.63081 5.21416C7.75137 5.28638 7.84803 5.34749 7.92081 5.39749C8.3476 5.27881 8.78867 5.21937 9.23164 5.22083C9.68164 5.22083 10.1186 5.27999 10.5425 5.39833L10.8008 5.23416C10.9786 5.12527 11.188 5.02527 11.4291 4.93416C11.6708 4.84249 11.8553 4.81749 11.9825 4.85916C12.188 5.37361 12.2061 5.83749 12.0366 6.25083C12.3966 6.63805 12.5766 7.10694 12.5766 7.65749C12.5766 8.04416 12.53 8.38666 12.4366 8.68499C12.3433 8.98333 12.2228 9.22222 12.075 9.40166C11.9207 9.58646 11.733 9.74053 11.5216 9.85583C11.3199 9.97149 11.1043 10.0611 10.88 10.1225C10.6501 10.1811 10.4161 10.222 10.18 10.245C10.4166 10.4494 10.535 10.7725 10.535 11.2142V12.845C10.535 12.9228 10.5464 12.9856 10.5691 13.0333C10.5799 13.0562 10.5951 13.0768 10.6138 13.0938C10.6325 13.1109 10.6545 13.124 10.6783 13.1325C10.7283 13.1503 10.7728 13.1614 10.8116 13.1658C10.8505 13.1703 10.9061 13.1728 10.9783 13.1733H7.48331Z" fill="#190C18"/>
<path d="M3.99999 2.33333C3.55796 2.33333 3.13404 2.50893 2.82148 2.82149C2.50892 3.13405 2.33332 3.55797 2.33332 4V14C2.33332 14.442 2.50892 14.8659 2.82148 15.1785C3.13404 15.4911 3.55796 15.6667 3.99999 15.6667H14C14.442 15.6667 14.8659 15.4911 15.1785 15.1785C15.4911 14.8659 15.6667 14.442 15.6667 14V4C15.6667 3.55797 15.4911 3.13405 15.1785 2.82149C14.8659 2.50893 14.442 2.33333 14 2.33333H3.99999ZM3.99999 0.666664H14C14.884 0.666664 15.7319 1.01785 16.357 1.64297C16.9821 2.2681 17.3333 3.11594 17.3333 4V14C17.3333 14.8841 16.9821 15.7319 16.357 16.357C15.7319 16.9821 14.884 17.3333 14 17.3333H3.99999C3.11593 17.3333 2.26809 16.9821 1.64297 16.357C1.01785 15.7319 0.666656 14.8841 0.666656 14V4C0.666656 3.11594 1.01785 2.2681 1.64297 1.64297C2.26809 1.01785 3.11593 0.666664 3.99999 0.666664Z" fill="#190C18"/>
</svg>
