<svg width="20" height="20" viewBox="0 0 20 20" fill="none" xmlns="http://www.w3.org/2000/svg">
<path d="M16.6667 0C17.5507 0 18.3986 0.303709 19.0237 0.844315C19.6488 1.38492 20 2.11814 20 2.88267V14.4134C20 15.1779 19.6488 15.9111 19.0237 16.4517C18.3986 16.9923 17.5507 17.296 16.6667 17.296H3.33333C2.44928 17.296 1.60143 16.9923 0.976311 16.4517C0.35119 15.9111 0 15.1779 0 14.4134V2.88267C0 2.11814 0.35119 1.38492 0.976311 0.844315C1.60143 0.303709 2.44928 0 3.33333 0H16.6667ZM16.6667 1.92178H3.33333C3.03865 1.92178 2.75603 2.02302 2.54766 2.20322C2.33929 2.38342 2.22222 2.62783 2.22222 2.88267V14.4134C2.22222 14.6682 2.33929 14.9126 2.54766 15.0928C2.75603 15.273 3.03865 15.3742 3.33333 15.3742H16.6667C16.9614 15.3742 17.244 15.273 17.4523 15.0928C17.6607 14.9126 17.7778 14.6682 17.7778 14.4134V2.88267C17.7778 2.62783 17.6607 2.38342 17.4523 2.20322C17.244 2.02302 16.9614 1.92178 16.6667 1.92178ZM5.55556 6.72623C5.8277 6.72626 6.09038 6.81267 6.29375 6.96906C6.49712 7.12546 6.62705 7.34096 6.65889 7.5747L6.66667 7.68712V12.4916C6.66635 12.7365 6.55791 12.972 6.3635 13.1501C6.16909 13.3282 5.90339 13.4354 5.62067 13.4497C5.33796 13.4641 5.05958 13.3846 4.84241 13.2274C4.62524 13.0702 4.48567 12.8472 4.45222 12.604L4.44444 12.4916V7.68712C4.44444 7.43228 4.56151 7.18787 4.76988 7.00767C4.97826 6.82747 5.26087 6.72623 5.55556 6.72623ZM8.88889 5.76534C9.14911 5.76531 9.40108 5.84426 9.60088 5.98842C9.80069 6.13259 9.93564 6.33283 9.98222 6.55423C10.206 6.44246 10.4372 6.34204 10.6744 6.25347C11.4156 5.97962 12.5256 5.82876 13.5278 6.10069C14.0533 6.24482 14.5811 6.51387 14.9722 6.97222C15.3222 7.3806 15.5111 7.87738 15.5489 8.43565L15.5556 8.64801V12.4916C15.5552 12.7365 15.4468 12.972 15.2524 13.1501C15.058 13.3282 14.7923 13.4354 14.5096 13.4497C14.2268 13.4641 13.9485 13.3846 13.7313 13.2274C13.5141 13.0702 13.3746 12.8472 13.3411 12.604L13.3333 12.4916V8.64801C13.3333 8.33092 13.2444 8.18294 13.1867 8.11472C13.1036 8.0256 12.9894 7.96221 12.8611 7.93407C12.4744 7.82837 11.9178 7.8841 11.5478 8.02055C10.9922 8.22618 10.4833 8.54904 10.1367 8.84788L10 8.97471V12.4916C9.99969 12.7365 9.89125 12.972 9.69684 13.1501C9.50243 13.3282 9.23672 13.4354 8.95401 13.4497C8.67129 13.4641 8.39291 13.3846 8.17574 13.2274C7.95857 13.0702 7.819 12.8472 7.78556 12.604L7.77778 12.4916V6.72623C7.77778 6.47139 7.89484 6.22698 8.10322 6.04678C8.31159 5.86658 8.5942 5.76534 8.88889 5.76534ZM5.55556 3.84356C5.85024 3.84356 6.13286 3.9448 6.34123 4.125C6.5496 4.3052 6.66667 4.54961 6.66667 4.80445C6.66667 5.05929 6.5496 5.3037 6.34123 5.4839C6.13286 5.6641 5.85024 5.76534 5.55556 5.76534C5.26087 5.76534 4.97826 5.6641 4.76988 5.4839C4.56151 5.3037 4.44444 5.05929 4.44444 4.80445C4.44444 4.54961 4.56151 4.3052 4.76988 4.125C4.97826 3.9448 5.26087 3.84356 5.55556 3.84356Z" fill="#190C18"/>
</svg>
